<svg id="Layer_1" data-name="Layer 1" xmlns="http://www.w3.org/2000/svg" viewBox="0 0 347.31 232.05"><defs><style>.cls-1,.cls-2{fill:none;stroke-linecap:round;stroke-linejoin:round;stroke-width:1.65px;}.cls-1{stroke:#010101;}.cls-2{stroke:#f9ae14;}</style></defs><line class="cls-1" x1="153.65" y1="3.5" x2="138.01" y2="3.63"/><line class="cls-1" x1="207.33" y1="3.03" x2="178.59" y2="3.28"/><line class="cls-1" x1="181.44" y1="25.88" x2="73.19" y2="26.82"/><line class="cls-1" x1="236.63" y1="25.4" x2="214.68" y2="25.59"/><line class="cls-2" x1="126.46" y1="48.98" x2="31.21" y2="49.8"/><line class="cls-2" x1="270.16" y1="47.73" x2="168.61" y2="48.61"/><line class="cls-1" x1="213.36" y1="70.84" x2="45.25" y2="72.3"/><line class="cls-1" x1="282.87" y1="70.24" x2="247.29" y2="70.55"/><line class="cls-1" x1="97.37" y1="94.47" x2="56.97" y2="94.82"/><line class="cls-1" x1="345.96" y1="92.32" x2="139.87" y2="94.1"/><line class="cls-2" x1="203.47" y1="116.17" x2="2.14" y2="117.91"/><line class="cls-2" x1="292.39" y1="115.4" x2="245.62" y2="115.81"/><line class="cls-1" x1="187.21" y1="138.93" x2="57.15" y2="140.06"/><line class="cls-1" x1="319.99" y1="137.78" x2="223.89" y2="138.62"/><line class="cls-2" x1="102.76" y1="162.29" x2="34.83" y2="162.87"/><line class="cls-2" x1="284.08" y1="160.72" x2="152.11" y2="161.86"/><line class="cls-1" x1="191.38" y1="184.14" x2="99.61" y2="184.93"/><line class="cls-1" x1="296" y1="183.23" x2="227.36" y2="183.83"/><line class="cls-2" x1="132.62" y1="207.27" x2="96.92" y2="207.58"/><line class="cls-2" x1="263.9" y1="206.13" x2="173.41" y2="206.92"/><line class="cls-1" x1="173.99" y1="229.53" x2="152.06" y2="229.72"/><line class="cls-1" x1="212.51" y1="229.2" x2="197.38" y2="229.33"/></svg>